<?xml version="1.0" encoding="utf-8"?>
<!-- Generator: Adobe Illustrator 28.0.0, SVG Export Plug-In . SVG Version: 6.00 Build 0)  -->
<svg version="1.1" id="Слой_1" xmlns="http://www.w3.org/2000/svg" xmlns:xlink="http://www.w3.org/1999/xlink" x="0px" y="0px"
	 viewBox="0 0 306 305.6" style="enable-background:new 0 0 306 305.6;" xml:space="preserve">
<style type="text/css">
	.st0{fill:#FFFFFF;stroke:#FFFFFF;stroke-linejoin:round;stroke-miterlimit:10;}
	.st1{fill:#FFFFFF;stroke:#FFFFFF;stroke-miterlimit:10;}
</style>
<g>
	<path class="st0" d="M280.5,232.3c-3.9,5.4-28.3,39-59.7,54.5c-12.4,6.1-25.8,9.9-25.8,9.9c-4.7,1.3-15.1,4-28.7,5.2
		c-22,1.9-38.9-1.2-43.3-2.1c-8.1-1.6-23.4-5.4-40.7-14.6c-26.7-14.3-42.6-33.4-49.6-42.8C9.4,211,4.7,178.8,3.6,164.7
		c-3.4-40.6,10.6-70.7,15-79.6c4.3-8.5,16.8-31.5,42.7-51.4C74,24,100.8,6.7,138.9,3.2c29.8-2.7,53.5,4.2,66.5,9.1
		c-3.1-0.8-7.5-1.7-12.8-2.5c-12.8-1.8-22.9-1.2-30.7-0.6c-11.9,0.8-20.8,2.6-23.1,3c-20.6,4.1-35.5,11.2-39,12.9
		C73.2,38,57.3,55.9,53.7,60c-7.7,8.8-24.4,30.2-31.3,62.4c-4,18.4-3.3,33.6-2.5,42c0.9,9.2,2.8,27.2,13.7,46.7
		c5.5,9.9,13.4,23.5,28.9,29.4c4.8,1.8,9.8,3.7,15.4,2c13.1-4.1,19.3-25.4,19-42.1c0-0.9-0.1-1.7-0.1-2.3
		c-0.5-8.4-3.3-32.2-23.5-43.8c-12.6-7.2-25.6-6-30.9-5.2c9.6-4.4,28-11.1,51.7-10.3c6.4,0.2,26.1,1.4,48.4,12.6
		c15.3,7.7,26.5,17.4,34,25.4c2.2-0.5,7.1-1.4,12.9,0.3c7.3,2.2,11.3,7.3,12.5,9c-2-0.3-6.4-0.7-11.1,1.4c-2.3,1-5.8,2.6-7.3,6.3
		c-1.9,4.5-0.3,10.9,4.2,13.6c5.2,3.1,11.3-0.7,13.6-2.1c4.7-2.9,6.8-7.2,7.7-9c1.6,3.7,3.4,9.4,2.1,15.7c-1.6,7.5-6.3,9.3-6.3,15.7
		c0,6.1,4.3,11.8,9,14.6c5.8,3.5,12.2,2.4,16,1.7C250.4,240.2,271.3,234.8,280.5,232.3z"/>
	<path class="st1" d="M288.5,214.4c-1.4,2.6-2.8,5.1-4.4,7.5c27.2-60.1,2.9-132.3-56.9-164.4C167.4,25.4,93.9,44.8,58.7,100.6
		c1.2-2.6,2.5-5.2,3.9-7.8C95.7,31.3,173.1,8.6,235.5,42.2S321.6,152.8,288.5,214.4z"/>
</g>
</svg>
